<svg xmlns="http://www.w3.org/2000/svg" viewBox="0 0 512 512" width="512" height="512">
  <!-- Background -->
  <rect x="20" y="20" width="472" height="472" rx="80" fill="#1E1E2E" stroke="#CBA6F7" stroke-width="15"/>
  
  <!-- Plane symbol -->
  <path d="M400 160c0-8.84-7.16-16-16-16h-78.86c-13.44 0-26.7-2.66-39.28-7.75l-2.37-.95c-12.09-4.91-25.05-7.44-38.04-7.44h-89.28c-8.84 0-16 7.16-16 16v32c0 8.84 7.16 16 16 16h46.46l-36.77 92.35c-1.69 4.25-2.55 8.78-2.55 13.33v23.27c0 10.1 8.2 18.31 18.31 18.31 4.77 0 9.3-1.85 12.76-5.06l69.53-64.47h108.28c10.53 0 20.82-2.95 29.66-8.51l46.73-29.57c7.1-4.51 11.41-12.31 11.41-20.74v-16c0-8.84-7.16-16-16-16z" 
        fill="#CBA6F7" transform="scale(0.7) translate(110, 150)"/>
  
  <!-- Clouds -->
  <circle cx="140" cy="380" r="35" fill="#89B4FA" />
  <circle cx="180" cy="370" r="45" fill="#89B4FA" />
  <circle cx="230" cy="380" r="35" fill="#89B4FA" />
  
  <!-- Text -->
  <text x="256" y="100" font-family="Arial, sans-serif" font-size="60" font-weight="bold" fill="#CDD6F4" text-anchor="middle">BOOKIFY</text>
  <text x="256" y="440" font-family="Arial, sans-serif" font-size="30" font-weight="bold" fill="#CDD6F4" text-anchor="middle">TRAVEL</text>
</svg> 